<?xml version="1.0" encoding="UTF-8" standalone="no"?>
<!DOCTYPE svg PUBLIC "-//W3C//DTD SVG 1.1//EN" "http://www.w3.org/Graphics/SVG/1.1/DTD/svg11.dtd">
<svg width="100%" height="100%" viewBox="0 0 483 512" version="1.1" xmlns="http://www.w3.org/2000/svg" xmlns:xlink="http://www.w3.org/1999/xlink" xml:space="preserve" xmlns:serif="http://www.serif.com/" style="fill-rule:evenodd;clip-rule:evenodd;stroke-linejoin:round;stroke-miterlimit:2;">
    <g transform="matrix(1,0,0,1,-541.996533,-512)">
        <g transform="matrix(0.5,0,0,0.5,526.998267,512)">
            <g transform="matrix(1.208059,0,0,1.48931,122.50432,363.67006)">
                <path d="M611.603,89.744L611.603,177.493C611.611,177.762 611.615,178.031 611.615,178.3C611.615,226.851 482.031,266.268 322.42,266.268C162.81,266.268 33.226,226.851 33.226,178.3L33.214,178.3L33.214,89.735C103.483,114.316 207.03,129.866 322.422,129.866C437.8,129.866 541.334,114.32 611.603,89.744Z" style="fill:rgb(84,116,161);"/>
            </g>
            <g transform="matrix(1.421724,0,0,1.647001,53.615615,265.286637)">
                <path d="M611.613,114.749C611.614,114.844 611.615,114.939 611.615,115.034C611.615,163.585 482.031,203.002 322.42,203.002C162.81,203.002 33.226,163.585 33.226,115.034L33.214,115.034L33.214,114.742C95.238,143.274 201.655,162.11 322.422,162.11C443.178,162.11 549.588,143.277 611.613,114.749Z" style="fill:rgb(71,85,105);"/>
            </g>
            <g transform="matrix(1.600537,0,0,1.973162,-4.036284,156.525076)">
                <path d="M611.603,81.965L611.603,114.228C611.611,114.496 611.615,114.765 611.615,115.034C611.615,163.585 482.031,203.002 322.42,203.002C162.81,203.002 33.226,163.585 33.226,115.034L33.214,115.034L33.214,81.939C69.667,120.054 185.422,147.941 322.421,147.941C459.389,147.941 575.123,120.066 611.603,81.965Z" style="fill:rgb(125,211,252);"/>
            </g>
            <g transform="matrix(1.385298,0,0,1.62152,69.366659,468.718544)">
                <path d="M584.978,95.522C602.065,106.745 611.603,119.244 611.603,132.416L611.603,172.335C611.611,172.604 611.615,172.873 611.615,173.142C611.615,221.692 482.031,261.109 322.42,261.109C162.81,261.109 33.226,221.692 33.226,173.142L33.214,173.142L33.214,132.416C33.214,120.903 40.502,109.903 53.748,99.821L53.748,118.387L53.759,118.387C53.759,162.98 172.777,199.183 319.374,199.183C465.971,199.183 584.989,162.98 584.989,118.387C584.989,118.14 584.985,117.893 584.978,117.647L584.978,95.522Z" style="fill:rgb(125,211,252);"/>
            </g>
            <path d="M916.618,709.605L916.618,748.163C916.629,748.599 916.635,749.035 916.635,749.471C916.635,828.197 737.123,892.113 516.015,892.113C294.907,892.113 115.395,828.197 115.395,749.471L115.379,749.471L115.379,708.28L115.395,708.28C115.395,788.04 294.907,852.794 516.015,852.794C735.897,852.794 914.643,788.756 916.618,709.605Z" style="fill:rgb(84,116,161);"/>
            <g transform="matrix(1.597706,0,0,1.791395,0.883074,566.12079)">
                <path d="M584.179,89.492C601.768,100.848 611.603,113.53 611.603,126.906L611.603,166.825C611.611,167.093 611.615,167.362 611.615,167.631C611.615,216.182 482.031,255.599 322.42,255.599C162.81,255.599 33.226,216.182 33.226,167.631L33.214,167.631L33.214,126.906C33.214,113.53 43.05,100.847 60.639,89.491L60.639,119.919L60.65,119.919C60.65,163.866 177.945,199.545 322.42,199.545C466.895,199.545 584.19,163.866 584.19,119.919C584.19,119.675 584.186,119.432 584.179,119.189L584.179,89.492Z" style="fill:rgb(125,211,252);"/>
            </g>
            <path d="M978.044,825.058L978.044,864.97C978.057,865.451 978.063,865.933 978.063,866.415C978.063,953.389 771.027,1024 516.016,1024C261.005,1024 53.969,953.389 53.969,866.415L53.95,866.415L53.95,793.459C53.95,792.076 54.002,790.697 54.106,789.322L54.106,823.587L54.126,823.587C54.126,912.121 261.127,984 516.094,984C769.648,984 975.767,912.916 978.044,825.058Z" style="fill:rgb(84,116,161);"/>
            <g transform="matrix(1.666679,0,0,2.054702,-25.361304,-8.512281)">
                <path d="M33.214,74.309C33.214,55.033 53.64,37.197 88.26,22.696C108.956,14.028 158.577,4.143 322.414,4.143C486.252,4.143 537.993,14.921 556.557,22.696C591.177,37.197 611.603,55.033 611.603,74.309L611.603,114.228C611.611,114.496 611.615,114.765 611.615,115.034C611.615,163.585 482.031,203.002 322.42,203.002C162.81,203.002 33.226,163.585 33.226,115.034L33.214,115.034L33.214,74.309Z" style="fill:rgb(125,211,252);"/>
            </g>
            <path d="M993.984,180.122L993.984,226.192C993.997,226.744 994.003,227.296 994.003,227.849C994.003,327.607 778.029,408.597 512.01,408.597C245.99,408.597 30.016,327.607 30.016,227.849L29.997,227.849L29.997,167.641L30.016,167.641C30.016,267.513 246.24,348.597 512.566,348.597C767.706,348.597 976.863,274.182 993.984,180.122Z" style="fill:rgb(84,116,161);"/>
        </g>
    </g>
</svg>
